<?xml version="1.0" encoding="utf-8"?>
<COLLADA xmlns="http://www.collada.org/2005/11/COLLADASchema" version="1.4.1" xmlns:xsi="http://www.w3.org/2001/XMLSchema-instance">
  <asset>
    <contributor>
      <author>Blender User</author>
      <authoring_tool>Blender 2.90.1 commit date:2020-09-23, commit time:06:43, hash:3e85bb34d0d7</authoring_tool>
    </contributor>
    <created>2025-09-12T19:16:20</created>
    <modified>2025-09-12T19:16:20</modified>
    <unit name="meter" meter="1"/>
    <up_axis>Z_UP</up_axis>
  </asset>
  <library_effects>
    <effect id="Red-effect">
      <profile_COMMON>
        <technique sid="common">
          <lambert>
            <emission>
              <color sid="emission">0 0 0 1</color>
            </emission>
            <diffuse>
              <color sid="diffuse">0.8000001 0.02756503 0.02756503 1</color>
            </diffuse>
            <index_of_refraction>
              <float sid="ior">1.45</float>
            </index_of_refraction>
          </lambert>
        </technique>
      </profile_COMMON>
    </effect>
  </library_effects>
  <library_images/>
  <library_materials>
    <material id="Red-material" name="Red">
      <instance_effect url="#Red-effect"/>
    </material>
  </library_materials>
  <library_geometries>
    <geometry id="Ov5647_Support-mesh" name="Ov5647 Support">
      <mesh>
        <source id="Ov5647_Support-mesh-positions">
          <float_array id="Ov5647_Support-mesh-positions-array" count="972">-0.01399999 0.023 0 -0.002999961 0.023 0 -0.01399999 0.023 -0.002499997 -0.002999961 0.023 -0.002499997 -0.01999998 -0.023 0 -0.023 -0.023 0 -0.01999998 -0.023 -0.002499997 -0.023 -0.023 -0.002499997 -0.002499997 -0.01049995 -0.006249964 -0.002499997 -0.01049995 -0.009499967 -0.002499997 -0.01112496 -0.006082475 -0.002499997 -0.01158249 -0.005624949 -0.002499997 -0.01699995 -0.001999974 -0.002499997 -0.007499992 -0.001999974 -0.002499997 -0.01049995 -0.003749966 -0.002499997 -0.01112496 -0.01858252 -0.002499997 -0.01262128 -0.01962131 -0.002499997 -0.01158249 -0.01812499 -0.002499997 -0.01327162 -0.01864802 -0.002499997 -0.01174998 -0.01749998 -0.002499997 -0.01349997 -0.01749998 -0.002499997 -0.01158249 -0.01687496 -0.002499997 -0.007499992 -0.003999948 -0.002499997 -0.009749948 -0.003999948 -0.002499997 -0.009874999 -0.003917455 -0.002499997 -0.009249985 -0.01749998 -0.002499997 -0.009417414 -0.01687496 -0.002499997 -0.01174998 -0.004999995 -0.002499997 -0.009874999 -0.01641744 -0.002499997 -0.01049995 -0.01624995 -0.002499997 -0.009874999 -0.01858252 -0.002499997 -0.007499992 -0.0205 -0.002499997 -0.01049995 -0.01874995 -0.002499997 -0.01049995 -0.0205 -0.002499997 -0.01164799 -0.02027159 -0.002499997 -0.01591843 -0.002671301 -0.002499997 -0.01699995 -0.002499997 -0.002499997 -0.01112496 -0.01641744 -0.002499997 -0.01349997 -0.005999982 -0.002499997 -0.007499992 -0.009499967 -0.002499997 -0.009417414 -0.01812499 -0.002499997 -0.01367127 -0.004918396 -0.002499997 -0.01158249 -0.00437498 -0.002499997 -0.01416844 -0.003942728 -0.002499997 -0.0149427 -0.003168404 -0.002499997 -0.01112496 -0.003917455 -0.002499997 0.01049995 -0.009499967 -0.002499997 0.01349997 -0.01749998 -0.002499997 0.01158249 -0.01687496 -0.002499997 0.009749948 -0.003999948 -0.002499997 0.007499992 -0.003999948 -0.002499997 0.009874999 -0.003917455 -0.002499997 0.007499992 -0.001999974 -0.002499997 0.01049995 -0.003749966 -0.002499997 0.01699995 -0.001999974 -0.002499997 0.007499992 -0.0205 -0.002499997 0.009874999 -0.01858252 -0.002499997 0.01049995 -0.0205 -0.002499997 0.01049995 -0.01874995 -0.002499997 0.01164799 -0.02027159 -0.002499997 0.01112496 -0.01858252 -0.002499997 0.01262128 -0.01962131 -0.002499997 0.01158249 -0.01812499 -0.002499997 0.01327162 -0.01864802 -0.002499997 0.01174998 -0.01749998 -0.002499997 0.01699995 -0.002499997 -0.002499997 0.01591843 -0.002671301 -0.002499997 0.009874999 -0.01641744 -0.002499997 0.007499992 -0.009499967 -0.002499997 0.01049995 -0.01624995 -0.002499997 0.01112496 -0.01641744 -0.002499997 0.009417414 -0.01687496 -0.002499997 0.009249985 -0.01749998 -0.002499997 0.009417414 -0.01812499 -0.002499997 0.01158249 -0.00437498 -0.002499997 0.01112496 -0.003917455 -0.002499997 0.01049995 -0.006249964 -0.002499997 0.01112496 -0.006082475 -0.002499997 0.01349997 -0.005999982 -0.002499997 0.01158249 -0.005624949 -0.002499997 0.01367127 -0.004918396 -0.002499997 0.01174998 -0.004999995 -0.002499997 0.01416844 -0.003942728 -0.002499997 0.0149427 -0.003168404 -0.004499971 0.01699995 -0.001999974 -0.004499971 0.01699995 0 -0.023 0.01699995 0 -0.023 0.01699995 -0.002499997 -0.004499971 -0.01699995 -0.001999974 -0.023 -0.01699995 -0.002499997 -0.004499971 -0.01699995 0 -0.023 -0.01699995 0 -0.00149995 0.007499992 -0.009499967 0 0.007499992 -0.001999974 -0.00149995 0.007499992 -0.003999948 0 0.007499992 -0.0205 0 0.01112496 -0.01858252 0 0.01049995 -0.01874995 0 0.01049995 -0.0205 0 0.01049995 -0.003749966 0 0.01112496 -0.003917455 0 0.01999998 0 0 0.01158249 -0.00437498 0 -0.007499992 -0.0205 0 -0.009874999 -0.01858252 0 -0.01049995 -0.0205 0 -0.01049995 -0.01874995 0 -0.01164799 -0.02027159 0 -0.01112496 -0.01858252 0 -0.01262128 -0.01962131 0 -0.01158249 -0.01812499 0 -0.01327162 -0.01864802 0 -0.01349997 -0.01749998 0 -0.01158249 -0.00437498 0 -0.01112496 -0.003917455 0 -0.01999998 0 0 0.009874999 -0.01858252 0 0.009417414 -0.01812499 0 0.01349997 -0.01749998 0 0.01349997 -0.005999982 0 0.01112496 -0.01641744 0 0.0149427 -0.003168404 0 0.01591843 -0.002671301 0 0.01699995 -0.002499997 0 0.01999998 -0.002499997 0 -0.009874999 -0.01641744 0 -0.009417414 -0.01687496 0 -0.007499992 -0.001999974 0 -0.009249985 -0.01749998 0 -0.009417414 -0.01812499 0 0.01164799 -0.02027159 0 0.01262128 -0.01962131 0 0.01158249 -0.01812499 0 0.01327162 -0.01864802 0 0.01174998 -0.01749998 0 0.01158249 -0.01687496 0 -0.01049995 -0.003749966 0 -0.009874999 -0.003917455 0 -0.009417414 -0.00437498 0 0.009249985 -0.01749998 0 0.009417414 -0.01687496 0 0.009874999 -0.006082475 0 0.009874999 -0.01641744 0 0.01049995 -0.006249964 0 0.01049995 -0.01624995 0 0.01112496 -0.006082475 0 0.01158249 -0.005624949 0 0.01174998 -0.004999995 0 0.01367127 -0.004918396 0 0.01416844 -0.003942728 0 0.009417414 -0.005624949 0 0.009249985 -0.004999995 0 0.009417414 -0.00437498 0 0.009874999 -0.003917455 0 -0.01112496 -0.01641744 0 -0.01349997 -0.005999982 0 -0.01158249 -0.01687496 0 -0.01174998 -0.01749998 0 -0.01999998 -0.002499997 0 -0.01699995 -0.002499997 0 -0.01591843 -0.002671301 0 -0.009249985 -0.004999995 0 -0.009417414 -0.005624949 0 -0.009874999 -0.006082475 0 -0.01049995 -0.01624995 0 -0.01049995 -0.006249964 0 -0.01112496 -0.006082475 0 -0.01158249 -0.005624949 0 -0.01367127 -0.004918396 0 -0.01174998 -0.004999995 0 -0.01416844 -0.003942728 0 -0.0149427 -0.003168404 -0.00149995 0.01049995 -0.006249964 -0.00149995 0.009749948 -0.003999948 -0.00149995 0.009874999 -0.006082475 -0.00149995 0.009417414 -0.005624949 -0.00149995 0.009249985 -0.004999995 -0.00149995 0.009417414 -0.00437498 -0.00149995 0.01049995 -0.009499967 -0.02329903 0.02074998 -0.002499997 -0.02349996 0.01999998 -0.002499997 -0.02499997 0.02099996 -0.002499997 -8.7868e-4 0.02212131 -0.002499997 -2.28362e-4 0.02114802 -0.002499997 -0.02499997 0.01899999 -0.002499997 -0.02329903 0.01924997 -0.002499997 -0.02484774 0.01823461 -0.002499997 -0.02441418 0.01758575 -0.002499997 -0.02274996 0.01870095 -0.002499997 -0.02376532 0.01715219 -0.002499997 -0.02199995 0.01849997 -0.002499997 -0.02124994 0.01870095 -0.002499997 -0.02070093 0.01924997 -0.002499997 -0.02484774 0.02176535 -0.002499997 -0.02441418 0.0224142 -0.002499997 -0.02274996 0.021299 -0.002499997 -0.02376532 0.02284771 -0.002499997 -0.02199995 0.02149999 -0.002499997 -0.023 0.023 -0.002499997 -0.02124994 0.021299 -0.002499997 -0.01999998 0.023 -0.002499997 -0.0205 0.01999998 -0.002499997 -0.01551103 0.02118164 -0.002499997 -0.01462161 0.02197951 -0.002499997 -0.01999998 0.02249997 -0.002499997 -0.01984775 0.02173459 -0.002499997 -0.02070093 0.02074998 -0.002499997 -0.01941418 0.02108573 -0.002499997 -0.01876533 0.02065223 -0.002499997 -0.01799994 0.0205 -0.002499997 -0.01777487 0.0205 -0.002499997 -0.01659274 0.0206741 -0.002499997 -0.001851916 0.02277159 -0.002499997 -0.01999998 0.023 0 -0.023 0.023 0 -0.02499997 0.01899999 0 -0.02499997 0.02099996 0 -0.02349996 0.01999998 0 -0.02329903 0.02074998 0 -0.02274996 0.021299 0 -0.02199995 0.02149999 0 -0.02124994 0.021299 0 -0.02070093 0.02074998 0 -0.0205 0.01999998 0 -0.02070093 0.01924997 0 -0.02124994 0.01870095 0 -0.02199995 0.01849997 0 -0.02274996 0.01870095 0 -0.02329903 0.01924997 0 -0.01462161 0.02197951 0 -0.01551103 0.02118164 0 -0.02376532 0.01715219 0 -0.02441418 0.01758575 0 -8.7868e-4 0.02212131 0 -0.001851916 0.02277159 0 -0.01777487 -0.0205 0 -0.01659274 -0.0206741 0 -0.01999998 -0.02249997 0 -0.01984775 -0.02173459 0 -0.02124994 -0.021299 0 -0.02441418 0.0224142 0 -0.01659274 0.0206741 0 -0.01777487 0.0205 0 -0.01799994 0.0205 0 -0.01551103 -0.02118164 0 -0.01462161 -0.02197951 0 -0.01399999 -0.023 0 -0.02070093 -0.02074998 0 -0.02499997 -0.02099996 0 -0.02484774 -0.02176535 0 -0.02329903 -0.02074998 0 -0.02441418 -0.0224142 0 -0.02274996 -0.021299 0 -0.02376532 -0.02284771 0 -0.02199995 -0.02149999 0 -0.02484774 0.02176535 0 -0.02484774 0.01823461 0 -2.28362e-4 0.02114802 0 -0.01799994 -0.0205 0 -0.0205 -0.01999998 0 -0.01876533 -0.02065223 0 -0.01941418 -0.02108573 0 -8.7868e-4 -0.02212131 0 -2.28362e-4 -0.02114802 0 -0.001851916 -0.02277159 0 -0.002999961 -0.023 0 -0.02499997 -0.01899999 0 -0.02349996 -0.01999998 0 -0.02484774 -0.01823461 0 -0.02329903 -0.01924997 0 -0.02441418 -0.01758575 0 -0.02274996 -0.01870095 0 -0.02376532 -0.01715219 0 -0.02199995 -0.01849997 0 -0.01876533 0.02065223 0 -0.01941418 0.02108573 0 -0.01984775 0.02173459 0 -0.01999998 0.02249997 0 -0.02376532 0.02284771 0 -0.02070093 -0.01924997 0 -0.02124994 -0.01870095 0 -0.00149995 -0.007499992 -0.003999948 -0.00149995 -0.007499992 -0.009499967 -0.00149995 -0.01049995 -0.006249964 -0.00149995 -0.009874999 -0.006082475 -0.00149995 -0.009417414 -0.005624949 -0.00149995 -0.009249985 -0.004999995 -0.00149995 -0.009417414 -0.00437498 -0.00149995 -0.009749948 -0.003999948 -0.00149995 -0.01049995 -0.009499967 -0.01799994 -0.0205 -0.002499997 -0.02070093 -0.02074998 -0.002499997 -0.0205 -0.01999998 -0.002499997 -0.02329903 -0.02074998 -0.002499997 -0.02274996 -0.021299 -0.002499997 -0.02441418 -0.0224142 -0.002499997 -0.02484774 -0.02176535 -0.002499997 -0.02499997 -0.02099996 -0.002499997 -0.02349996 -0.01999998 -0.002499997 -0.02499997 -0.01899999 -0.002499997 -0.02329903 -0.01924997 -0.002499997 -0.002999961 -0.023 -0.002499997 -0.01399999 -0.023 -0.002499997 -0.01462161 -0.02197951 -0.002499997 -0.01876533 -0.02065223 -0.002499997 -0.01941418 -0.02108573 -0.002499997 -0.02124994 -0.021299 -0.002499997 -0.01984775 -0.02173459 -0.002499997 -0.01999998 -0.02249997 -0.002499997 -0.02199995 -0.02149999 -0.002499997 -0.02376532 -0.02284771 -0.002499997 -0.01551103 -0.02118164 -0.002499997 -0.01659274 -0.0206741 -0.002499997 -0.01777487 -0.0205 -0.002499997 -0.02484774 -0.01823461 -0.002499997 -0.02441418 -0.01758575 -0.002499997 -0.02274996 -0.01870095 -0.002499997 -0.02376532 -0.01715219 -0.002499997 -0.02199995 -0.01849997 -0.002499997 -0.02124994 -0.01870095 -0.002499997 -0.02070093 -0.01924997 -0.002499997 -2.28362e-4 -0.02114802 -0.002499997 -8.7868e-4 -0.02212131 -0.002499997 -0.001851916 -0.02277159 -0.002499997</float_array>
          <technique_common>
            <accessor source="#Ov5647_Support-mesh-positions-array" count="324" stride="3">
              <param name="X" type="float"/>
              <param name="Y" type="float"/>
              <param name="Z" type="float"/>
            </accessor>
          </technique_common>
        </source>
        <source id="Ov5647_Support-mesh-normals">
          <float_array id="Ov5647_Support-mesh-normals-array" count="1131">0 1 0 0 -1 0 -1 0 0 -1 -1.42371e-6 0 -1 3.9206e-7 0 -1 -2.29195e-7 0 -1 3.26164e-7 0 -1 0 0 -1 -9.53221e-7 0 -1 4.28313e-6 0 -1 -6.85298e-6 0 -1 0 0 -1 0 0 -1 -3.31348e-7 0 -1 0 0 -1 -4.20455e-7 0 -1 0 0 -1 1.97018e-7 0 -1 -1.27548e-7 0 -1 8.51538e-7 0 -1 0 0 -1 0 0 -1 2.26345e-7 0 -1 4.97193e-7 0 -1 -2.29195e-7 0 -1 -3.92059e-7 0 -1 2.29195e-7 0 -1 3.15341e-7 0 -1 5.60609e-7 0 -1 0 0 -1 2.84903e-7 0 -1 -2.31548e-7 0 -1 -8.51542e-7 0 -1 1.27548e-7 0 -1 0 0 -1 -3.73126e-7 0 -1 0 0 -1 2.34138e-7 0 -1 0 0 -1 -1.34654e-7 0 0 -1 -9.09494e-7 0 -1 0 1 0 0 1 0 0 1 0 0 1 0 0 1 0 0 1 0 0 1 0 0 1 0 0 1 0 0 1 0 0 1 0 0 1 0 0 1 0 0 1 0 0 1 0 0 1 0 0 1 0 0 1 0 0 1 0 0 1 0 0 1 0 0 1 0 0 1 0 0 1 0 0 1 0 0 1 0 0 1 0 0 1 0 0 1 0 0 1 0 0 1 0 0 1 0 0 1 0 0 1 0 0 1 0 0 1 0 0 1 0 0 1 0 0 1 0 0 1 0 0 1 0 0 1 0 0 1 0 0 1 0 0 1 0 0 1 0 0 1 0 0 1 0 0 1 0 0 1 0 0 1 0 0 1 0 0 1 0 0 1 0 0 1 0 0 1 0 0 1 0 0 1 0 0 1 0 0 1 0 0 1 0 0 1 0 0 1 0 0 1 0 0 1 0 0 1 0 0 1 0 0 1 0 0 1 0 0 1 0 0 1 0 0 1 0 0 1 0 0 1 0 0 1 0 0 1 0 0 1 0 0 1 0 0 1 0 0 1 0 0 0 0 -1 0 0.9659255 -0.2588208 0 0.9659259 -0.2588186 0 0.707108 -0.7071056 0 0.2588199 -0.9659256 0 0.2588188 -0.9659259 0 -0.2588194 -0.9659258 0 -0.2588199 -0.9659256 0 -0.7071058 -0.7071079 0 -0.7071091 -0.7071045 0 -0.9659255 -0.2588208 0 -0.9659259 -0.2588186 0 -0.965926 0.2588187 0 -0.9659255 0.2588208 0 -0.7071091 0.7071045 0 -0.7071058 0.7071079 0 -0.2588199 0.9659256 0 -0.2588194 0.9659258 0 0.2588188 0.9659259 0 0.2588199 0.9659256 0 0.707108 0.7071056 0 0.965926 0.2588187 0 0.9659255 0.2588208 0 -0.2588186 0.965926 0 0.5509878 -0.8345133 0 0.2588195 0.9659258 0 0.2588195 0.9659258 0 0.7071078 0.7071058 0 0.7071069 0.7071067 0 0.9659258 0.2588194 0 0.9659258 0.2588194 0 0.9659258 -0.2588194 0 0.9659258 -0.2588194 0 0.7071076 -0.7071061 0 -0.2588183 0.9659261 0 -0.2588199 0.9659256 0 -0.7071051 0.7071086 0 -0.7071084 0.7071052 0 0.5509946 -0.8345089 -0.02583652 0.7479537 -0.6632479 0 0 1 -1 0 0 -1 3.43175e-7 0 0 0.195091 -0.9807852 0 0.5555698 -0.83147 0 0.5555709 -0.8314693 0 0.8314691 -0.5555711 0 0.9807855 -0.1950893 0 0.9807855 -0.1950893 1.49001e-7 0 -1 -6.7877e-7 0 -1 3.42956e-7 0 -1 0 0 -1 0 0 -1 -3.14684e-7 0 -1 2.98001e-7 0 -1 1.57342e-7 0 -1 0 0 -1 7.27594e-7 0 -1 0 0 -1 1.58775e-7 0 -1 0 0 -1 0 0 -1 0.9659268 -0.2588156 0 0.9659259 -0.2588191 0 0.7071057 -0.7071079 0 0.7071076 -0.7071059 0 0.2588192 -0.9659259 0 0.2588211 -0.9659253 0 -0.2588201 -0.9659255 0 -0.7071076 -0.7071061 0 -0.7071058 -0.7071079 0 -0.9659249 -0.2588226 0 -0.9659259 -0.2588191 0 -0.9659258 0.2588191 0 -0.965925 0.2588226 0 -0.7071057 0.7071079 0 -0.7071076 0.7071059 0 -0.2588179 0.9659261 0 0.2588188 0.9659259 0 0.258817 0.9659265 0 0.7071076 0.7071061 0 0.7071058 0.7071079 0 0.9659258 0.2588191 0 0.9659268 0.2588156 0 0 0 1 0 0 1 0 0 1 0 0 1 0 0 1 0 0 1 0 0 1 0 0 1 0 0 1 0 0 1 0 0 1 0 0 1 0 0 1 0 0 1 0 0 1 0 0 1 0 0 1 0 0 1 0 0 1 0 0 1 0 0 1 0 0 1 0 0 1 0 0 1 0 0 1 0 0 1 0 0 1 0 0 1 0 0 1 0 0 1 0 0 1 0 0 1 0 0 1 0 0 1 0 0 1 0 0 1 0 0 1 0 0 1 0 0 1 0 0 1 0 0 1 0 0.1564342 -0.9876885 0 0.1564345 -0.9876884 0 0.4539895 -0.8910071 0 0.4539905 -0.8910066 0 0.7071071 -0.7071066 0 0.8910071 -0.4539896 0 0.891006 -0.4539917 0 0.9876884 -0.1564344 0 0.9876884 -0.1564344 0.9807853 0.1950903 0 0.9807853 0.1950902 0 0.8314695 0.5555705 0 0.8314695 0.5555704 0 0.5555703 0.8314696 0 0.1950909 0.9807852 0 0.195091 0.9807852 0 0 0 -1 -0.9807851 -0.1950918 0 -0.9807865 -0.1950846 0 -0.8314684 -0.5555723 0 -0.5555723 -0.8314682 0 -0.5555689 -0.8314707 0 -0.1950911 -0.9807852 0 -0.1950911 -0.9807852 0 -0.1950911 0.9807852 0 -0.1950911 0.9807852 0 -0.5555689 0.8314707 0 -0.5555723 0.8314682 0 -0.8314684 0.5555723 0 -0.9807865 0.1950846 0 -0.9807851 0.1950918 0 0 1 0 0 -0.9659255 0.2588208 0 -0.9659259 0.2588186 0 -0.707108 0.7071056 0 0.2588194 0.9659258 0 0.9659255 0.2588208 0 0.9659259 0.2588186 0 0.965926 -0.2588187 0 0.9659255 -0.2588208 0 0.2588194 -0.9659258 0 -0.2588199 -0.9659256 0 -0.707108 -0.7071056 0 -0.965926 -0.2588187 0 -0.9659255 -0.2588208 0 0.2588183 0.9659261 0 -0.2588195 0.9659258 0 -0.2588195 0.9659258 0 -0.7071079 0.7071058 0 -0.7071069 0.7071068 0 -0.9659258 0.2588194 0 -0.9659258 0.2588194 0 -0.9659258 -0.2588194 0 -0.9659258 -0.2588194 0 -0.7482047 -0.663468 -0.02001601 -0.7069659 -0.7069643 0 -0.5509878 -0.8345133 0 -0.5509901 -0.8345118 0 0.7071073 0.7071063 0 0.2588194 0.9659258 -1 -2.14484e-7 0 -1 1.2936e-7 0 0 -0.9807855 -0.1950893 0 -0.9807855 -0.1950893 0 -0.8314691 -0.5555711 0 -0.5555704 -0.8314697 0 -0.5555698 -0.83147 0 -0.195091 -0.9807852 0 -0.1950907 -0.9807852 0 0 -1 -3.14684e-7 0 -1 -2.58547e-7 0 -1 1.27618e-7 0 -1 -2.97819e-7 0 -1 6.85912e-7 0 -1 -3.81807e-7 0 -1 -3.14685e-7 0 -1 2.98001e-7 0 -1 0 0 -1 -9.8426e-7 0 -1 0 0 -1 4.33639e-7 0 -1 0.258817 -0.9659265 0 0.2588188 -0.9659259 0 -0.2588179 -0.9659261 0 0 -0.9876884 -0.1564344 0 -0.9876884 -0.1564344 0 -0.8910071 -0.4539896 0 -0.7071057 -0.7071079 0 -0.4539905 -0.8910066 0 -0.1564346 -0.9876884 0 -0.1564342 -0.9876885 0.1950909 -0.9807852 0 0.195091 -0.9807852 0 0.5555703 -0.8314696 0 0.8314695 -0.5555705 0 0.8314695 -0.5555704 0 0.9807853 -0.1950902 0 0.9807853 -0.1950903 0 0.195088 0.9807857 0 0.1950895 0.9807855 0 0.5555706 0.8314694 0 0.8314684 0.5555723 0 0.8314701 0.5555697 0 0.9807851 0.1950918 0 0.9807858 0.1950882 0 0.9807858 -0.1950882 0 0.9807851 -0.1950918 0 0.8314701 -0.5555697 0 0.8314684 -0.5555723 0 0.5555706 -0.8314694 0 0.1950895 -0.9807855 0 0.195088 -0.9807857 0 -0.8540191 0.5202419 0 -0.8540191 0.520242 0 -0.6677545 0.7443816 0 -0.6677532 0.7443828 0 -0.4247748 0.9052991 0 -0.4247748 0.9052991 0 -0.1457158 0.9893266 0 -0.1457158 0.9893266 0 -0.8540191 -0.520242 0 -0.8540191 -0.5202419 0 -0.6677544 -0.7443817 0 -0.6677533 -0.7443827 0 -0.4247748 -0.9052991 0 -0.4247748 -0.9052991 0 -0.1457158 -0.9893266 0 -0.1457158 -0.9893266 0</float_array>
          <technique_common>
            <accessor source="#Ov5647_Support-mesh-normals-array" count="377" stride="3">
              <param name="X" type="float"/>
              <param name="Y" type="float"/>
              <param name="Z" type="float"/>
            </accessor>
          </technique_common>
        </source>
        <vertices id="Ov5647_Support-mesh-vertices">
          <input semantic="POSITION" source="#Ov5647_Support-mesh-positions"/>
        </vertices>
        <triangles material="Red-material" count="668">
          <input semantic="VERTEX" source="#Ov5647_Support-mesh-vertices" offset="0"/>
          <input semantic="NORMAL" source="#Ov5647_Support-mesh-normals" offset="1"/>
          <p>0 0 1 0 2 0 2 0 1 0 3 0 4 1 5 1 6 1 6 1 5 1 7 1 8 2 9 2 10 2 10 3 9 3 11 3 12 2 13 2 14 2 15 4 16 4 17 4 17 5 16 5 18 5 17 2 18 2 19 2 19 2 18 2 20 2 19 2 20 2 21 2 22 2 23 2 13 2 13 6 23 6 24 6 13 7 24 7 14 7 9 8 25 8 11 8 11 9 25 9 26 9 11 10 26 10 27 10 27 11 26 11 28 11 27 12 28 12 29 12 30 2 31 2 32 2 32 2 31 2 33 2 32 2 33 2 15 2 15 13 33 13 34 13 15 14 34 14 16 14 35 15 36 15 12 15 21 2 20 2 37 2 37 2 20 2 38 2 37 2 38 2 29 2 9 2 39 2 25 2 25 2 39 2 31 2 25 2 31 2 40 2 40 2 31 2 30 2 29 16 38 16 27 16 27 2 38 2 41 2 27 2 41 2 42 2 42 17 41 17 43 17 42 2 43 2 44 2 14 2 45 2 12 2 12 18 45 18 42 18 12 19 42 19 35 19 35 2 42 2 44 2 46 20 47 20 48 20 49 2 50 2 51 2 51 2 50 2 52 2 51 2 52 2 53 2 53 2 52 2 54 2 55 2 56 2 57 2 57 21 56 21 58 21 57 22 58 22 59 22 59 23 58 23 60 23 59 24 60 24 61 24 61 25 60 25 62 25 61 26 62 26 63 26 63 2 62 2 47 2 47 2 62 2 64 2 47 2 64 2 48 2 54 27 65 27 66 27 67 2 68 2 69 2 69 2 68 2 46 2 69 2 46 2 70 2 70 2 46 2 48 2 67 2 71 2 68 2 68 28 71 28 72 28 68 29 72 29 55 29 55 30 72 30 73 30 55 31 73 31 56 31 66 32 74 32 54 32 54 33 74 33 75 33 54 34 75 34 53 34 46 35 76 35 47 35 47 36 76 36 77 36 47 37 77 37 78 37 78 2 77 2 79 2 78 38 79 38 80 38 80 2 79 2 81 2 80 2 81 2 82 2 82 39 81 39 74 39 82 2 74 2 83 2 83 2 74 2 66 2 65 1 54 1 84 1 85 1 86 1 84 1 84 1 86 1 87 1 84 1 87 1 65 1 12 0 36 0 88 0 88 0 36 0 89 0 88 0 89 0 90 0 90 0 89 0 91 0 92 1 68 1 55 1 93 1 52 1 50 1 50 40 94 40 93 40 93 1 94 1 92 1 93 1 92 1 95 1 95 41 92 41 55 41 96 42 97 42 98 42 99 43 100 43 101 43 101 44 100 44 102 44 103 45 104 45 105 45 105 46 104 46 106 46 105 47 106 47 107 47 107 48 106 48 108 48 107 49 108 49 109 49 109 50 108 50 110 50 109 51 110 51 111 51 111 52 110 52 112 52 113 53 114 53 115 53 98 54 97 54 95 54 95 55 97 55 116 55 95 56 116 56 117 56 118 57 119 57 120 57 102 58 121 58 122 58 102 59 122 59 101 59 101 60 122 60 123 60 101 61 123 61 124 61 125 62 126 62 127 62 127 63 126 63 128 63 127 64 128 64 103 64 103 65 128 65 129 65 103 66 129 66 104 66 98 67 130 67 96 67 96 68 130 68 131 68 96 69 131 69 132 69 132 70 131 70 133 70 132 71 133 71 134 71 134 72 133 72 118 72 134 73 118 73 135 73 135 74 118 74 120 74 136 75 137 75 127 75 127 76 137 76 138 76 117 77 139 77 95 77 95 78 139 78 140 78 95 79 140 79 141 79 141 80 140 80 142 80 141 81 142 81 143 81 143 82 142 82 144 82 143 83 144 83 145 83 145 84 144 84 120 84 145 85 120 85 146 85 146 86 120 86 119 86 146 87 119 87 147 87 147 88 119 88 148 88 147 89 148 89 102 89 102 90 148 90 149 90 102 91 149 91 121 91 141 92 150 92 95 92 95 93 150 93 151 93 95 94 151 94 93 94 93 95 151 95 152 95 93 76 152 76 153 76 154 96 155 96 156 96 156 97 155 97 112 97 156 73 112 73 157 73 157 98 112 98 110 98 153 99 99 99 93 99 93 100 99 100 101 100 93 101 101 101 127 101 127 102 101 102 115 102 127 103 115 103 136 103 136 104 115 104 114 104 158 61 159 61 115 61 115 105 159 105 160 105 115 106 160 106 113 106 138 107 161 107 127 107 127 108 161 108 162 108 127 109 162 109 125 109 125 110 162 110 163 110 125 111 163 111 164 111 164 112 163 112 165 112 164 113 165 113 154 113 154 114 165 114 166 114 154 115 166 115 155 115 155 73 166 73 167 73 155 116 167 116 168 116 168 117 167 117 169 117 168 118 169 118 170 118 170 119 169 119 113 119 170 120 113 120 171 120 171 121 113 121 160 121 98 122 95 122 57 122 57 122 95 122 55 122 119 0 118 0 78 0 78 0 118 0 47 0 139 123 72 123 140 123 140 124 72 124 71 124 140 125 71 125 142 125 142 125 71 125 67 125 142 126 67 126 144 126 144 127 67 127 69 127 144 128 69 128 120 128 120 129 69 129 70 129 120 130 70 130 135 130 135 131 70 131 48 131 135 132 48 132 134 132 134 133 48 133 64 133 134 134 64 134 132 134 132 135 64 135 62 135 132 136 62 136 96 136 96 137 62 137 60 137 96 138 60 138 97 138 97 139 60 139 58 139 97 140 58 140 116 140 116 141 58 141 56 141 116 142 56 142 117 142 117 142 56 142 73 142 117 143 73 143 139 143 139 144 73 144 72 144 172 145 143 145 145 145 173 146 49 146 51 146 143 147 172 147 141 147 141 148 172 148 174 148 141 149 174 149 150 149 150 150 174 150 175 150 150 151 175 151 151 151 151 152 175 152 176 152 151 153 176 153 152 153 152 154 176 154 177 154 152 155 177 155 153 155 76 156 172 156 77 156 77 157 172 157 145 157 77 158 145 158 79 158 79 159 145 159 146 159 79 135 146 135 81 135 81 134 146 134 147 134 81 133 147 133 74 133 74 132 147 132 102 132 74 131 102 131 75 131 75 130 102 130 100 130 75 129 100 129 53 129 53 128 100 128 99 128 53 127 99 127 51 127 51 126 99 126 153 126 51 160 153 160 173 160 173 161 153 161 177 161 94 122 50 122 173 122 173 122 50 122 49 122 92 162 178 162 68 162 68 162 178 162 46 162 46 1 178 1 76 1 76 1 178 1 172 1 173 2 177 2 94 2 94 2 177 2 176 2 94 163 176 163 92 163 172 2 178 2 174 2 174 2 178 2 92 2 174 164 92 164 175 164 175 2 92 2 176 2 98 165 57 165 59 165 98 165 59 165 130 165 130 166 59 166 61 166 130 167 61 167 131 167 131 168 61 168 63 168 131 168 63 168 133 168 133 169 63 169 47 169 133 170 47 170 118 170 179 122 180 122 181 122 182 122 183 122 124 122 181 122 180 122 184 122 184 122 180 122 185 122 184 122 185 122 186 122 186 122 185 122 187 122 187 171 185 171 188 171 187 122 188 122 189 122 189 172 188 172 87 172 87 173 188 173 190 173 87 122 190 122 65 122 65 174 190 174 191 174 65 175 191 175 192 175 181 122 193 122 179 122 179 176 193 176 194 176 179 177 194 177 195 177 195 178 194 178 196 178 195 122 196 122 197 122 197 179 196 179 198 179 197 122 198 122 199 122 199 122 198 122 200 122 192 122 201 122 65 122 65 122 201 122 124 122 65 122 124 122 123 122 124 122 202 122 203 122 200 180 204 180 199 180 199 122 204 122 205 122 199 122 205 122 206 122 205 181 207 181 206 181 206 122 207 122 208 122 206 182 208 182 201 182 208 122 209 122 201 122 201 122 209 122 210 122 201 122 210 122 124 122 124 183 210 183 211 183 124 122 211 122 202 122 212 122 182 122 3 122 3 122 182 122 124 122 3 122 124 122 2 122 2 184 124 184 203 184 200 0 198 0 213 0 213 0 198 0 214 0 215 2 216 2 184 2 184 2 216 2 181 2 217 185 180 185 218 185 218 186 180 186 179 186 218 187 179 187 219 187 219 188 179 188 195 188 219 189 195 189 220 189 220 190 195 190 197 190 220 191 197 191 221 191 221 191 197 191 199 191 221 192 199 192 222 192 222 193 199 193 206 193 222 194 206 194 223 194 223 195 206 195 201 195 223 196 201 196 224 196 224 197 201 197 192 197 224 198 192 198 225 198 225 199 192 199 191 199 225 200 191 200 226 200 226 200 191 200 190 200 226 201 190 201 227 201 227 202 190 202 188 202 227 203 188 203 228 203 228 204 188 204 185 204 228 205 185 205 217 205 217 206 185 206 180 206 229 207 230 207 101 207 1 208 0 208 229 208 90 209 115 209 85 209 85 210 115 210 101 210 85 211 101 211 223 211 223 212 224 212 85 212 85 213 224 213 225 213 85 214 225 214 86 214 86 215 225 215 226 215 86 162 226 162 231 162 231 216 226 216 227 216 231 162 227 162 232 162 232 162 227 162 228 162 233 217 234 217 1 217 235 218 236 218 115 218 237 162 238 162 239 162 218 162 219 162 240 162 230 219 241 219 101 219 101 220 241 220 242 220 101 221 242 221 223 221 223 162 242 162 243 162 223 162 243 162 222 162 236 222 244 222 115 222 115 223 244 223 245 223 115 224 245 224 246 224 239 162 238 162 247 162 248 162 249 162 250 162 250 225 249 225 251 225 250 162 251 162 252 162 252 226 251 226 253 226 252 162 253 162 254 162 254 162 253 162 5 162 254 227 5 227 239 227 239 228 5 228 4 228 239 162 4 162 237 162 240 162 255 162 218 162 218 162 255 162 216 162 218 162 216 162 217 162 217 162 216 162 215 162 217 229 215 229 228 229 228 162 215 162 256 162 228 230 256 230 232 230 229 231 101 231 1 231 1 162 101 162 257 162 1 232 257 232 233 232 258 162 259 162 260 162 260 233 259 233 247 233 260 162 247 162 261 162 261 162 247 162 238 162 262 162 263 162 264 162 264 162 263 162 115 162 264 234 115 234 265 234 265 235 115 235 246 235 248 162 250 162 266 162 266 162 250 162 267 162 266 162 267 162 268 162 268 162 267 162 269 162 268 162 269 162 270 162 270 162 269 162 271 162 270 236 271 236 272 236 272 162 271 162 91 162 91 237 271 237 273 237 91 238 273 238 90 238 243 239 274 239 222 239 222 162 274 162 275 162 222 240 275 240 221 240 221 241 275 241 276 241 276 162 277 162 221 162 221 242 277 242 213 242 221 162 213 162 220 162 220 162 213 162 214 162 220 162 214 162 219 162 219 162 214 162 278 162 219 226 278 226 240 226 258 162 235 162 259 162 259 243 235 243 115 243 259 244 115 244 279 244 279 245 115 245 90 245 279 246 90 246 280 246 280 247 90 247 273 247 65 248 123 248 66 248 66 249 123 249 122 249 66 250 122 250 83 250 83 251 122 251 121 251 83 252 121 252 82 252 82 252 121 252 149 252 82 253 149 253 80 253 80 254 149 254 148 254 80 255 148 255 78 255 78 256 148 256 119 256 101 257 124 257 183 257 101 258 183 258 257 258 257 259 183 259 182 259 257 260 182 260 233 260 233 261 182 261 212 261 233 261 212 261 234 261 234 262 212 262 3 262 234 263 3 263 1 263 13 122 12 122 88 122 84 122 54 122 52 122 93 122 127 122 52 122 52 122 127 122 13 122 52 122 13 122 84 122 84 264 13 264 88 264 215 265 184 265 186 265 215 266 186 266 256 266 256 267 186 267 187 267 256 267 187 267 232 267 232 268 187 268 189 268 232 269 189 269 231 269 231 270 189 270 87 270 231 271 87 271 86 271 214 272 198 272 196 272 214 273 196 273 278 273 278 274 196 274 194 274 278 275 194 275 240 275 240 276 194 276 193 276 240 276 193 276 255 276 255 277 193 277 181 277 255 278 181 278 216 278 22 0 13 0 281 0 281 0 13 0 127 0 281 0 127 0 282 0 282 279 127 279 103 279 282 0 103 0 39 0 39 0 103 0 31 0 103 122 105 122 31 122 31 122 105 122 33 122 112 1 155 1 20 1 20 1 155 1 38 1 128 280 25 280 129 280 129 281 25 281 40 281 129 282 40 282 104 282 104 282 40 282 30 282 104 138 30 138 106 138 106 157 30 157 32 157 106 140 32 140 108 140 108 283 32 283 15 283 108 142 15 142 110 142 110 142 15 142 17 142 110 284 17 284 157 284 157 285 17 285 19 285 157 286 19 286 156 286 156 287 19 287 21 287 156 125 21 125 154 125 154 125 21 125 37 125 154 288 37 288 164 288 164 127 37 127 29 127 164 289 29 289 125 289 125 129 29 129 28 129 125 290 28 290 126 290 126 290 28 290 26 290 126 291 26 291 128 291 128 292 26 292 25 292 8 293 10 293 283 293 283 148 10 148 165 148 283 294 165 294 284 294 284 295 165 295 163 295 284 296 163 296 285 296 285 297 163 297 162 297 285 298 162 298 286 298 286 299 162 299 161 299 286 300 161 300 287 300 287 301 161 301 138 301 287 302 138 302 288 302 288 303 138 303 137 303 23 304 288 304 24 304 24 305 288 305 137 305 24 129 137 129 14 129 14 289 137 289 136 289 14 127 136 127 45 127 45 288 136 288 114 288 45 125 114 125 42 125 42 125 114 125 113 125 42 287 113 287 27 287 27 286 113 286 169 286 27 285 169 285 11 285 11 284 169 284 167 284 11 306 167 306 10 306 10 306 167 306 166 306 10 307 166 307 165 307 22 122 281 122 23 122 23 122 281 122 288 122 289 162 282 162 9 162 9 162 282 162 39 162 289 0 9 0 283 0 283 0 9 0 8 0 287 2 288 2 281 2 282 2 289 2 283 2 283 2 284 2 282 2 282 308 284 308 285 308 282 309 285 309 281 309 281 2 285 2 286 2 281 2 286 2 287 2 112 310 20 310 18 310 112 311 18 311 111 311 111 312 18 312 16 312 111 312 16 312 109 312 109 313 16 313 34 313 109 314 34 314 107 314 107 315 34 315 33 315 107 316 33 316 105 316 36 122 159 122 158 122 290 317 291 317 292 317 293 177 294 177 295 177 295 318 296 318 293 318 293 122 296 122 297 122 293 122 297 122 298 122 298 122 297 122 299 122 298 122 299 122 300 122 301 122 302 122 303 122 290 319 304 319 291 319 291 122 304 122 305 122 291 320 305 320 306 320 306 122 305 122 307 122 307 122 308 122 306 122 306 180 308 180 6 180 306 321 6 321 309 321 309 122 6 122 7 122 309 322 7 322 294 322 294 323 7 323 310 323 294 178 310 178 295 178 303 122 311 122 158 122 158 122 311 122 312 122 158 183 312 183 313 183 299 122 314 122 300 122 300 324 314 324 315 324 300 325 315 325 316 325 316 178 315 178 317 178 316 122 317 122 318 122 318 326 317 326 89 326 318 327 89 327 319 327 319 122 89 122 36 122 319 122 36 122 320 122 320 122 36 122 158 122 320 122 158 122 292 122 292 122 158 122 313 122 292 122 313 122 290 122 158 122 321 122 322 122 303 328 158 328 301 328 301 122 158 122 322 122 301 329 322 329 323 329 302 1 301 1 246 1 246 1 301 1 265 1 248 2 266 2 297 2 297 2 266 2 299 2 267 185 298 185 269 185 269 186 298 186 300 186 269 187 300 187 271 187 271 188 300 188 316 188 271 330 316 330 273 330 273 331 316 331 318 331 273 332 318 332 280 332 280 332 318 332 319 332 280 192 319 192 279 192 279 193 319 193 320 193 279 194 320 194 259 194 259 195 320 195 292 195 259 196 292 196 247 196 247 197 292 197 291 197 247 198 291 198 239 198 239 199 291 199 306 199 239 200 306 200 254 200 254 200 306 200 309 200 254 201 309 201 252 201 252 202 309 202 294 202 252 203 294 203 250 203 250 204 294 204 293 204 250 205 293 205 267 205 267 206 293 206 298 206 38 333 155 333 41 333 41 334 155 334 168 334 41 335 168 335 43 335 43 335 168 335 170 335 43 336 170 336 44 336 44 336 170 336 171 336 44 337 171 337 35 337 35 337 171 337 160 337 35 338 160 338 36 338 36 339 160 339 159 339 265 340 301 340 323 340 265 341 323 341 264 341 264 342 323 342 322 342 264 342 322 342 262 342 262 343 322 343 321 343 262 344 321 344 263 344 263 345 321 345 158 345 263 346 158 346 115 346 91 272 89 272 317 272 91 273 317 273 272 273 272 274 317 274 315 274 272 275 315 275 270 275 270 276 315 276 314 276 270 276 314 276 268 276 268 277 314 277 299 277 268 278 299 278 266 278 248 265 297 265 296 265 248 266 296 266 249 266 249 267 296 267 295 267 249 267 295 267 251 267 251 268 295 268 310 268 251 269 310 269 253 269 253 270 310 270 7 270 253 271 7 271 5 271 84 2 88 2 85 2 85 2 88 2 90 2 235 1 258 1 313 1 313 1 258 1 290 1 237 73 4 73 308 73 308 73 4 73 6 73 210 0 209 0 242 0 242 0 209 0 243 0 204 73 200 73 277 73 277 73 200 73 213 73 243 347 209 347 274 347 274 348 209 348 208 348 274 349 208 349 275 349 275 349 208 349 207 349 275 350 207 350 276 350 276 351 207 351 205 351 276 352 205 352 277 352 277 353 205 353 204 353 237 354 308 354 238 354 238 355 308 355 307 355 238 356 307 356 261 356 261 357 307 357 305 357 261 358 305 358 260 358 260 358 305 358 304 358 260 359 304 359 258 359 258 360 304 360 290 360 0 361 2 361 229 361 229 362 2 362 203 362 229 363 203 363 230 363 230 364 203 364 202 364 230 365 202 365 241 365 241 366 202 366 211 366 241 367 211 367 242 367 242 368 211 368 210 368 302 369 246 369 303 369 303 370 246 370 245 370 303 371 245 371 311 371 311 372 245 372 244 372 311 373 244 373 312 373 312 374 244 374 236 374 312 375 236 375 313 375 313 376 236 376 235 376</p>
        </triangles>
      </mesh>
    </geometry>
  </library_geometries>
  <library_visual_scenes>
    <visual_scene id="Scene" name="Scene">
      <node id="Ov5647_Support" name="Ov5647 Support" type="NODE">
        <matrix sid="transform">1 0 0 0 0 1 0 0 0 0 1 0 0 0 0 1</matrix>
        <instance_geometry url="#Ov5647_Support-mesh" name="Ov5647 Support">
          <bind_material>
            <technique_common>
              <instance_material symbol="Red-material" target="#Red-material"/>
            </technique_common>
          </bind_material>
        </instance_geometry>
      </node>
    </visual_scene>
  </library_visual_scenes>
  <scene>
    <instance_visual_scene url="#Scene"/>
  </scene>
</COLLADA>